<svg width="17" height="24" viewBox="0 0 17 24" fill="none" xmlns="http://www.w3.org/2000/svg">
<path fill-rule="evenodd" clip-rule="evenodd" d="M5.60244 23.2964V19.0415H11.875V23.2964H16.6021V0.378052H0.874573V23.2964H5.60244ZM11.875 2.48345H14.5206V5.15845H11.875V2.48345ZM14.5206 6.37218H11.875V9.0479H14.5206V6.37218ZM11.875 10.2616H14.5206V12.9359H11.875V10.2616ZM14.5206 14.1496H11.875V16.8261H14.5206V14.1496ZM7.41627 2.48345H10.0626V5.15845H7.41627V2.48345ZM10.0626 6.37218H7.41627V9.0479H10.0626V6.37218ZM7.41627 10.2616H10.0626V12.9359H7.41627V10.2616ZM10.0626 14.1496H7.41627V16.8261H10.0626V14.1496ZM2.95755 2.48345H5.60315V5.15845H2.95755V2.48345ZM5.60315 6.37218H2.95755V9.0479H5.60315V6.37218ZM2.95755 10.2616H5.60315V12.9359H2.95755V10.2616ZM5.60315 14.1496H2.95755V16.8261H5.60315V14.1496Z" fill="#58BEBF"/>
</svg>
