<svg width="45" height="46" viewBox="0 0 45 46" fill="none" xmlns="http://www.w3.org/2000/svg">
<circle cx="22.5" cy="23" r="22.5" fill="#58BEBF" fill-opacity="0.2"/>
<path fill-rule="evenodd" clip-rule="evenodd" d="M19.6024 33.2964V29.0415H25.875V33.2964H30.6021V10.3781H14.8746V33.2964H19.6024ZM25.875 12.4835H28.5206V15.1584H25.875V12.4835ZM28.5206 16.3722H25.875V19.0479H28.5206V16.3722ZM25.875 20.2616H28.5206V22.9359H25.875V20.2616ZM28.5206 24.1496H25.875V26.8261H28.5206V24.1496ZM21.4163 12.4835H24.0626V15.1584H21.4163V12.4835ZM24.0626 16.3722H21.4163V19.0479H24.0626V16.3722ZM21.4163 20.2616H24.0626V22.9359H21.4163V20.2616ZM24.0626 24.1496H21.4163V26.8261H24.0626V24.1496ZM16.9576 12.4835H19.6032V15.1584H16.9576V12.4835ZM19.6032 16.3722H16.9576V19.0479H19.6032V16.3722ZM16.9576 20.2616H19.6032V22.9359H16.9576V20.2616ZM19.6032 24.1496H16.9576V26.8261H19.6032V24.1496Z" fill="#58BEBF"/>
</svg>
